# xmcd
#
# Track frame offsets: 
#        182
#        10790
#        24085
#        36595
#        48467
#        61122
#        70955
#        81947
#        93117
#        109047
#
# Disc length: 1642 seconds
#
# Revision: 1
# Processed by: cddbd v1.5.2PL0 Copyright (c) Steve Scherf et al.
# Submitted via: ExactAudioCopyFreeDBPlugin 1.0
#
DISCID=7406680a
DTITLE=Various Artist - Rhino Promotional Sampler (1999)
DYEAR=1999
DGENRE=Rhythm and Blues
TTITLE0=The Cadillacs - Speedo
TTITLE1=Frankie Lymon and The Teenagers - I Want You to Be My Girl
TTITLE2=The Coasters - Searching'
TTITLE3=The Drifters - Up on the Roof
TTITLE4=Aretha Franklin - Chain of Fools
TTITLE5=Otis Redding - Respect
TTITLE6=Booker T. and the M.G.'s - Hip Hug-Her
TTITLE7=Dusty Springfield - Son of a Preacher Man
TTITLE8=Mitch Ryder and The Detroit Wheels - Devil With A Blue Dress On 
TTITLE8=Good Golly Miss Molly
TTITLE9=Curtis Mayfield - Superfly
EXTD=
EXTT0=
EXTT1=
EXTT2=
EXTT3=
EXTT4=
EXTT5=
EXTT6=
EXTT7=
EXTT8=
EXTT9=
PLAYORDER=
